HIERARCHY
ROOT Hips
{
	OFFSET 182.371002 92.491722 19.190800
	CHANNELS 6 Xposition Yposition Zposition Zrotation Yrotation Xrotation 
	JOINT LeftUpLeg
	{
		OFFSET 0.103461 1.857828 10.548504
		CHANNELS 3 Zrotation Yrotation Xrotation
		JOINT LeftLeg
		{
			OFFSET 43.500008 -0.000031 0.000006
			CHANNELS 3 Zrotation Yrotation Xrotation
			JOINT LeftFoot
			{
				OFFSET 42.372200 0.000019 -0.000010
				CHANNELS 3 Zrotation Yrotation Xrotation
				JOINT LeftToe
				{
					OFFSET 17.299999 -0.000000 0.000002
					CHANNELS 3 Zrotation Yrotation Xrotation
					End Site
					{
						OFFSET 0.000000 0.000000 0.000000
					}
				}
			}
		}
	}
	JOINT RightUpLeg
	{
		OFFSET 0.103457 1.857829 -10.548504
		CHANNELS 3 Zrotation Yrotation Xrotation
		JOINT RightLeg
		{
			OFFSET 43.500046 -0.000019 0.000011
			CHANNELS 3 Zrotation Yrotation Xrotation
			JOINT RightFoot
			{
				OFFSET 42.372261 0.000000 0.000008
				CHANNELS 3 Zrotation Yrotation Xrotation
				JOINT RightToe
				{
					OFFSET 17.299990 -0.000006 0.000008
					CHANNELS 3 Zrotation Yrotation Xrotation
					End Site
					{
						OFFSET 0.000000 0.000000 0.000000
					}
				}
			}
		}
	}
	JOINT Spine
	{
		OFFSET 6.901969 -2.603727 -0.000006
		CHANNELS 3 Zrotation Yrotation Xrotation
		JOINT Spine1
		{
			OFFSET 12.588100 -0.000002 0.000002
			CHANNELS 3 Zrotation Yrotation Xrotation
			JOINT Spine2
			{
				OFFSET 12.343195 0.000004 0.000008
				CHANNELS 3 Zrotation Yrotation Xrotation
				JOINT Neck
				{
					OFFSET 25.832905 -0.000008 -0.000002
					CHANNELS 3 Zrotation Yrotation Xrotation
					JOINT Head
					{
						OFFSET 11.766608 0.000010 -0.000008
						CHANNELS 3 Zrotation Yrotation Xrotation
						End Site
						{
							OFFSET 0.000000 0.000000 0.000000
						}
					}
				}
				JOINT LeftShoulder
				{
					OFFSET 19.745903 -1.480370 6.000106
					CHANNELS 3 Zrotation Yrotation Xrotation
					JOINT LeftArm
					{
						OFFSET 11.284119 -0.000006 -0.000014
						CHANNELS 3 Zrotation Yrotation Xrotation
						JOINT LeftForeArm
						{
							OFFSET 33.000050 0.000004 0.000026
							CHANNELS 3 Zrotation Yrotation Xrotation
							JOINT LeftHand
							{
								OFFSET 25.200020 0.000017 0.000004
								CHANNELS 3 Zrotation Yrotation Xrotation
								End Site
								{
									OFFSET 0.000000 0.000000 0.000000
								}
							}
						}
					}
				}
				JOINT RightShoulder
				{
					OFFSET 19.746099 -1.480375 -6.000082
					CHANNELS 3 Zrotation Yrotation Xrotation
					JOINT RightArm
					{
						OFFSET 11.284140 -0.000015 -0.000008
						CHANNELS 3 Zrotation Yrotation Xrotation
						JOINT RightForeArm
						{
							OFFSET 33.000084 0.000016 0.000002
							CHANNELS 3 Zrotation Yrotation Xrotation
							JOINT RightHand
							{
								OFFSET 25.199783 0.000142 0.000437
								CHANNELS 3 Zrotation Yrotation Xrotation
								End Site
								{
									OFFSET 0.000000 0.000000 0.000000
								}
							}
						}
					}
				}
			}
		}
	}
}
MOTION
Frames: 8
Frame Time: 0.033333
-16.539410 92.225113 -76.748444 86.412719 5.433277 34.031981 -175.877562 -2.855999 -179.421584 -11.771484 -2.599776 0.604275 81.392175 -0.867041 -2.217808 21.454555 0.003085 -0.000002 -174.477660 1.223405 -179.428878 -14.812691 2.076841 2.605579 85.408620 -1.870975 -0.076793 21.454558 -0.003113 -0.000019 7.609359 -0.139152 0.146646 5.205516 -0.284766 0.286926 4.887411 -0.282885 0.288640 9.841289 3.668853 2.154498 -11.543304 -5.712725 4.290146 -168.254675 -75.895710 -13.466983 -24.660828 56.138011 33.171415 -31.715119 -15.123769 1.271856 1.088008 -12.237432 1.627419 162.858839 69.424659 -16.363212 -23.608199 -50.693954 -34.904155 -33.107699 17.212536 -1.462174 6.593559 4.817980 -12.831265 
-16.882191 92.204483 -76.558250 86.187275 5.366323 33.296018 -175.230293 -2.956303 -179.563447 -11.530235 -2.592863 0.248565 81.672076 -0.646752 -2.363632 21.454551 0.003087 0.000000 -174.157352 1.106398 179.990374 -14.769806 2.109877 2.527421 85.427409 -1.832169 -0.147675 21.454560 -0.003111 -0.000018 7.539573 -0.128043 0.074102 5.066122 -0.259249 0.142568 4.748018 -0.258248 0.144127 9.934581 3.636502 2.078812 -11.407711 -5.465893 4.121883 -168.546543 -75.990308 -13.168417 -25.117737 56.170936 32.765674 -31.579537 -15.100705 1.272503 1.109308 -12.373119 1.618116 162.912702 69.461945 -16.306049 -23.136801 -50.976813 -35.517639 -33.264360 17.256709 -1.464697 6.426151 4.646938 -13.009411 
-17.211439 92.186333 -76.367607 85.983674 5.218831 32.474001 -174.660996 -3.126200 -179.534514 -11.335826 -2.714741 -0.250104 81.976224 -0.314404 -2.467510 21.454553 0.003092 -0.000000 -173.937106 0.960406 179.338911 -14.768522 2.144058 2.434560 85.403627 -1.782010 -0.211149 21.454557 -0.003106 -0.000017 7.454863 -0.101913 0.011605 4.896859 -0.204272 0.018927 4.578773 -0.204013 0.020161 9.953940 3.584704 1.986275 -11.099884 -5.171003 3.913682 -168.575312 -76.085971 -13.139017 -25.330544 56.328577 32.807106 -31.433770 -15.136024 1.270619 1.216201 -12.515918 1.401647 163.043282 69.514421 -16.169296 -22.445402 -51.159555 -36.193080 -33.337494 17.250527 -1.465399 6.285920 4.350083 -13.357426 
-17.515369 92.174217 -76.205780 85.868045 4.983837 31.500976 -174.182378 -3.273809 -179.982083 -11.115110 -2.709870 -0.571321 82.251713 -0.111657 -2.585592 21.454551 0.003082 -0.000001 -173.904430 0.815598 178.716353 -14.828006 2.156076 2.227242 85.359852 -1.657007 -0.297153 21.454562 -0.003109 -0.000017 7.349450 -0.078274 -0.025055 4.686083 -0.155533 -0.053233 4.367990 -0.155715 -0.052284 9.845204 3.546814 1.850309 -10.686652 -4.836807 3.649724 -168.507802 -76.092890 -13.207984 -25.247424 56.453914 33.052583 -31.379822 -15.173810 1.268218 1.232874 -12.482999 1.497040 163.436277 69.506245 -15.765205 -21.537282 -51.156498 -36.877438 -33.483483 17.178508 -1.464580 6.208501 4.249321 -13.677512 
-17.823370 92.159813 -76.058487 85.774800 4.706607 30.383055 -173.702598 -3.404402 179.259380 -10.880353 -2.619949 -0.800515 82.533574 0.021187 -2.725571 21.454553 0.003088 -0.000000 -173.913391 0.652103 178.151783 -14.868880 2.116302 1.910417 85.318427 -1.457968 -0.394145 21.454557 -0.003111 -0.000018 7.238033 -0.059368 -0.049410 4.463272 -0.116855 -0.101050 4.145180 -0.117322 -0.100334 9.737735 3.662738 1.686478 -10.359636 -4.590075 3.401140 -168.390090 -76.003797 -13.328417 -24.855157 56.513371 33.455462 -31.402775 -15.123757 1.265466 1.355322 -12.787527 1.519737 163.890799 69.424768 -15.301034 -20.539371 -50.985395 -37.618349 -33.528292 17.057834 -1.462489 6.069865 4.426173 -13.750095 
-18.150230 92.134132 -75.922783 85.651706 4.413459 29.220949 -173.212026 -3.581697 178.595445 -10.706387 -2.600580 -1.105181 82.875685 0.211195 -2.858670 21.454553 0.003094 0.000000 -173.881385 0.459792 177.637101 -14.889136 2.062588 1.543021 85.291700 -1.225756 -0.499322 21.454558 -0.003111 -0.000018 7.131975 -0.040292 -0.081195 4.251132 -0.077660 -0.163810 3.933042 -0.078506 -0.163336 9.735892 3.943255 1.484119 -10.243757 -4.429684 3.158425 -168.231534 -75.891796 -13.490619 -24.172955 56.553768 33.983968 -31.373856 -14.996522 1.256700 1.204139 -12.702776 1.587699 164.434031 69.313019 -14.746529 -19.639111 -50.740676 -38.402435 -33.440364 16.989317 -1.459400 6.121268 4.460408 -13.431062 
-18.490160 92.083908 -75.815498 85.454594 4.071906 27.983031 -172.744800 -3.887599 178.195360 -10.713740 -2.743343 -1.587951 83.370785 0.543901 -2.936751 21.454553 0.003095 0.000001 -173.853272 0.194901 176.997099 -14.997374 2.046539 1.195369 85.286960 -1.009147 -0.612215 21.454560 -0.003111 -0.000017 7.043597 -0.007200 -0.113532 4.074354 -0.010497 -0.227250 3.756259 -0.011730 -0.227179 9.829010 4.164592 1.241308 -10.333368 -4.136415 2.835265 -168.112990 -75.813508 -13.611893 -23.395790 56.672678 34.599153 -31.141100 -14.870580 1.243895 1.107147 -12.479101 1.592059 165.026127 69.226194 -14.140376 -18.866383 -50.557637 -39.026728 -33.220660 17.071373 -1.455589 6.409965 4.344401 -12.916546 
-18.819811 92.013161 -75.764587 85.179999 3.694306 26.698976 -172.580603 -4.231096 177.679134 -11.443452 -2.744308 -1.992830 84.113445 0.805019 -3.115889 21.454555 0.003090 0.000000 -173.893638 -0.141403 176.354405 -15.315466 2.051917 0.802318 85.308660 -0.767911 -0.757209 21.454560 -0.003110 -0.000017 6.985704 0.035959 -0.155661 3.958477 0.077111 -0.310020 3.640384 0.075370 -0.310473 9.965126 4.286862 0.978231 -10.627867 -3.696547 2.444697 -168.509018 -75.843711 -13.206807 -22.424650 56.932495 35.143714 -30.774794 -14.740832 1.228228 1.107246 -12.430102 1.618007 165.406145 69.201141 -13.750182 -18.236269 -50.398514 -39.390104 -32.771801 17.113814 -1.448505 6.646442 4.310272 -12.051146 
